HIERARCHY
ROOT root
{
	OFFSET	0	13.1	24.9
	CHANNELS 6  Xposition Yposition Zposition Xrotation Yrotation Zrotation
	JOINT spine_1
	{
		OFFSET	0	9.99999	0
		CHANNELS 3  Xrotation Yrotation Zrotation
		JOINT spine_2
		{
			OFFSET	0	112	-10
			CHANNELS 3  Xrotation Yrotation Zrotation
			JOINT spine_3
			{
				OFFSET	0	206.5	19.3
				CHANNELS 3  Xrotation Yrotation Zrotation
				JOINT spine_4
				{
					OFFSET	0	110.4	14.6
					CHANNELS 3  Xrotation Yrotation Zrotation
					JOINT neck_1
					{
						OFFSET	0	71.8	-50.3
						CHANNELS 3  Xrotation Yrotation Zrotation
						JOINT neck_2
						{
							OFFSET	0	86.2	-25.8
							CHANNELS 3  Xrotation Yrotation Zrotation
							JOINT head_ee
							{
								OFFSET	0	179.8	-8.7
								CHANNELS 3  Xrotation Yrotation Zrotation
								End Site
								{
									OFFSET	1	0	0
								}
							}
						}
					}
					JOINT left_clavicle
					{
						OFFSET	-43.2	22.4	-70.8
						CHANNELS 3  Xrotation Yrotation Zrotation
						JOINT left_shoulder
						{
							OFFSET	-93.9	-5.79999	48.7
							CHANNELS 3  Xrotation Yrotation Zrotation
							JOINT left_elbow
							{
								OFFSET	-291.4	-30.8	15.2
								CHANNELS 3  Xrotation Yrotation Zrotation
								JOINT left_lowarm_twist
								{
									OFFSET	-110.7	-3.89999	13.6
									CHANNELS 3  Xrotation Yrotation Zrotation
									JOINT left_hand
									{
										OFFSET	-110.7	-3.89999	13.6
										CHANNELS 3  Xrotation Yrotation Zrotation
										JOINT left_ee
										{
											OFFSET	-80.8	-5.10001	12.1
											CHANNELS 3  Xrotation Yrotation Zrotation
											End Site
											{
												OFFSET	1	0	0
											}
										}
									}
								}
							}
						}
					}
					JOINT right_clavicle
					{
						OFFSET	43.2	22.4	-70.8
						CHANNELS 3  Xrotation Yrotation Zrotation
						JOINT right_shoulder
						{
							OFFSET	93.9	-5.79999	48.7
							CHANNELS 3  Xrotation Yrotation Zrotation
							JOINT right_elbow
							{
								OFFSET	291.4	-30.8	15.2
								CHANNELS 3  Xrotation Yrotation Zrotation
								JOINT right_lowarm_twist
								{
									OFFSET	110.7	-3.89999	13.6
									CHANNELS 3  Xrotation Yrotation Zrotation
									JOINT right_hand
									{
										OFFSET	110.7	-3.89999	13.6
										CHANNELS 3  Xrotation Yrotation Zrotation
										JOINT right_ee
										{
											OFFSET	80.8	-5.10001	12.1
											CHANNELS 3  Xrotation Yrotation Zrotation
											End Site
											{
												OFFSET	1	0	0
											}
										}
									}
								}
							}
						}
					}
				}
			}
		}
	}
	JOINT left_hip
	{
		OFFSET	-82.8	-127.5	0.300001
		CHANNELS 3  Xrotation Yrotation Zrotation
		JOINT left_knee
		{
			OFFSET	-28.2	-396.7	2.2
			CHANNELS 3  Xrotation Yrotation Zrotation
			JOINT left_ankle
			{
				OFFSET	-11.7	-411.3	35.4
				CHANNELS 3  Xrotation Yrotation Zrotation
				JOINT left_toes
				{
					OFFSET	0	-60	-88.6
					CHANNELS 3  Xrotation Yrotation Zrotation
					JOINT left_foot_ee
					{
						OFFSET	-22.5	-16.5	-42.2
						CHANNELS 3  Xrotation Yrotation Zrotation
						End Site
						{
							OFFSET	1	0	0
						}
					}
				}
			}
		}
	}
	JOINT right_hip
	{
		OFFSET	82.8	-127.5	0.300001
		CHANNELS 3  Xrotation Yrotation Zrotation
		JOINT right_knee
		{
			OFFSET	28.2	-396.7	2.2
			CHANNELS 3  Xrotation Yrotation Zrotation
			JOINT right_ankle
			{
				OFFSET	11.7	-411.3	35.4
				CHANNELS 3  Xrotation Yrotation Zrotation
				JOINT right_toes
				{
					OFFSET	0	-60	-88.6
					CHANNELS 3  Xrotation Yrotation Zrotation
					JOINT right_foot_ee
					{
						OFFSET	22.5	-16.5	-42.2
						CHANNELS 3  Xrotation Yrotation Zrotation
						End Site
						{
							OFFSET	1	0	0
						}
					}
				}
			}
		}
	}
}
MOTION
Frames: 12
Frame Time: 0.02
1125.80865759 731.372 -1698.80951359 -14.6158787727 52.5874827773 13.8053767197 5.17103 -0.23051 -0.648401 5.17124 -0.188785 -0.661754 5.17322 -0.10722 -0.679751 5.17264 -0.213226 -0.654288 -12.8524 7.51858 -3.39044 -12.9905 16.4237 -0.992948 -0.0 0.0 -0.0 4.3047 16.4392 8.69354 -19.1261 13.9721 60.0712 0.193814 -5.48427 0.00928292 41.1313 -0.409411 -5.12707 5.84106 21.707 50.0434 -0.0 0.0 -0.0 4.87296 -17.4099 -9.58377 73.2472 -72.9713 -17.4031 0.21106 5.96891 -0.0110037 83.3646 4.23179 8.78794 -3.61568 -13.4334 17.4356 0.0 0.0 0.0 27.2261 0.493019 -7.01426 -50.8164 -1.29401 7.43968 31.1385 -28.1945 -4.84022 -0.513727 0.0 0.0 -0.0 0.0 -0.0 28.99 27.0374 -13.819 -26.7274 -0.155436 -4.06162 11.5892 -29.0412 1.75744 36.1703 -0.0 -0.0 0.0 0.0 0.0 
1115.64546811 731.33 -1715.30676145 -15.3835341799 51.60678609 14.4983395769 5.36662 -0.0666809 -0.732501 5.36692 -0.0199361 -0.73526 5.36689 0.0668276 -0.732488 5.36614 -0.0496907 -0.73385 -12.6106 6.57737 -3.44351 -12.7057 14.6733 -1.36462 -0.0 0.0 -0.0 3.69826 16.0632 7.72605 -20.0395 17.3628 60.0745 0.197956 -5.60074 0.00968297 40.7903 -0.391007 -5.08752 5.28341 22.33 44.8963 -0.0 0.0 -0.0 5.6764 -18.6044 -10.8024 72.8278 -73.2405 -18.9375 0.267321 7.54355 -0.0176232 83.0565 4.19537 8.77259 -4.35854 -18.1171 19.4123 0.0 0.0 0.0 29.6444 1.8324 -8.72697 -52.8674 -1.48096 7.69436 29.7195 -27.0301 -4.60482 -0.624541 0.0 0.0 -0.0 0.0 -0.0 29.9297 26.5539 -14.9242 -28.6367 -0.0938634 -4.34816 13.1224 -28.8501 1.97747 36.2273 -0.0 -0.0 0.0 0.0 0.0 
1087.18145694 731.869 -1728.17087265 -14.5898187017 54.8517868352 14.8072671526 5.4472 0.0741061 -0.717562 5.44747 0.119615 -0.711393 5.44573 0.201652 -0.692622 5.44507 0.0897375 -0.715775 -12.3889 4.80224 -2.97074 -12.4321 11.0084 -1.46284 -0.0 0.0 -0.0 3.27761 18.027 7.11128 -20.785 16.6111 58.8003 0.225519 -6.37454 0.0125582 39.8333 -0.340619 -4.97597 4.78807 22.4411 40.7178 -0.0 0.0 -0.0 5.26101 -18.5816 -10.1611 75.1742 -73.0712 -17.7097 0.24008 6.7824 -0.0142264 82.5616 4.13701 8.74752 -4.74858 -20.3165 20.4482 0.0 0.0 0.0 38.7957 0.650777 -8.18878 -55.4266 -1.7269 8.00265 29.9321 -20.1125 -4.32424 -1.54271 0.0 0.0 -0.0 0.0 -0.0 25.95 26.8306 -15.0758 -27.4433 -0.133472 -4.16928 16.114 -28.8568 2.40325 36.0605 -0.0 -0.0 0.0 0.0 0.0 
1083.39536127 731.869 -1723.84166104 -14.9074848434 55.6882642447 15.1937839033 5.4472 0.0741061 -0.717562 5.44747 0.119615 -0.711393 5.44573 0.201652 -0.692622 5.44507 0.0897375 -0.715775 -12.3889 4.80224 -2.97074 -12.4321 11.0084 -1.46284 -0.0 0.0 -0.0 3.27761 18.027 7.11128 -20.785 16.6111 58.8003 0.225519 -6.37454 0.0125582 39.8333 -0.340619 -4.97597 4.78807 22.4411 40.7178 -0.0 0.0 -0.0 5.26101 -18.5816 -10.1611 75.1742 -73.0712 -17.7097 0.24008 6.7824 -0.0142264 82.5616 4.13701 8.74752 -4.74858 -20.3165 20.4482 0.0 0.0 0.0 38.7957 0.650777 -8.18878 -55.4266 -1.7269 8.00265 29.9321 -20.1125 -4.32424 -1.54271 0.0 0.0 -0.0 0.0 -0.0 25.95 26.8306 -15.0758 -27.4433 -0.133472 -4.16928 16.114 -28.8568 2.40325 36.0605 -0.0 -0.0 0.0 0.0 0.0 
1081.00931347 728.781 -1730.01151121 -17.2412703738 55.9851607268 17.5763701928 5.37452 0.220507 -0.658276 5.37472 0.261947 -0.642912 5.3716 0.335832 -0.607593 5.37117 0.235662 -0.653004 -13.4343 4.94092 -2.6415 -13.4986 11.0463 -1.0032 -0.0 0.0 -0.0 3.15863 16.7703 6.89143 -19.8463 17.5493 59.0422 0.204178 -5.7756 0.0102996 39.7461 -0.336122 -4.96576 4.40477 21.9048 37.5946 -0.0 0.0 -0.0 5.44373 -17.4042 -10.4818 76.6845 -73.7883 -18.3465 0.249062 7.03366 -0.0153067 82.2831 4.10426 8.73319 -5.04725 -21.7844 21.3176 0.0 0.0 0.0 47.2343 1.97179 -9.307 -53.3967 -1.53069 7.75901 29.6258 -17.968 -4.21444 -2.08272 0.0 0.0 -0.0 0.0 -0.0 28.1045 26.4324 -16.3222 -28.1649 -0.109967 -4.27754 14.3294 -29.0135 2.15292 35.7492 -0.0 -0.0 0.0 0.0 0.0 
1067.60026657 729.183 -1735.21861137 -19.5580865844 57.4606231498 20.0912137138 5.72595 0.257848 -0.450105 5.72602 0.285967 -0.432786 5.7238 0.332496 -0.398155 5.72368 0.265443 -0.445668 -12.5712 2.15256 -3.94262 -12.5518 6.59073 -3.15348 -0.0 0.0 -0.0 3.20182 16.838 6.96115 -20.5701 19.0911 57.3496 0.204214 -5.77663 0.0103033 39.9916 -0.348826 -4.99448 4.07061 22.3343 35.1354 -0.0 0.0 -0.0 6.32389 -16.5785 -11.92 79.366 -74.0347 -16.9217 0.373163 10.4733 -0.0342014 82.9575 4.18366 8.76761 -4.86253 -20.4332 21.0983 0.0 0.0 0.0 50.9375 2.44463 -9.64508 -54.586 -1.64459 7.90259 27.9811 -12.802 -3.88217 -1.45493 0.0 0.0 -0.0 0.0 -0.0 26.4625 26.7027 -16.2418 -25.744 -0.183414 -3.91328 12.704 -29.16 1.9211 35.6565 -0.0 -0.0 0.0 0.0 0.0 
1049.85488303 733.485 -1741.77965111 -25.2774396586 59.9468805617 26.6426522169 5.56379 0.266676 -0.10515 5.56376 0.272827 -0.0879676 5.56337 0.2811 -0.0561763 5.56347 0.2687 -0.0998661 -11.6625 -3.03143 -4.53067 -11.6091 -2.79737 -5.19543 -0.0 0.0 -0.0 2.61588 17.758 6.08555 -17.2316 19.4197 55.234 0.296181 -8.34702 0.0216125 42.6914 -0.496602 -5.30657 3.84498 23.4523 33.6805 -0.0 0.0 -0.0 7.22622 -13.9304 -13.5677 81.711 -73.4849 -17.3144 0.501683 13.9566 -0.0614063 82.847 4.17064 8.76204 -5.30093 -21.5372 23.1288 0.0 0.0 0.0 57.0531 1.14709 -10.8882 -50.0248 -1.22433 7.33964 18.9002 -8.24505 -2.6905 -3.34625 0.0 0.0 -0.0 0.0 -0.0 23.2551 25.8181 -15.5849 -16.7548 -0.320159 -2.54211 17.7276 -29.0614 2.63187 37.5279 -0.0 -0.0 0.0 0.0 0.0 
1044.78313003 733.485 -1735.52777326 -26.120998204 60.9408545382 27.6123593531 5.56379 0.266676 -0.10515 5.56376 0.272827 -0.0879676 5.56337 0.2811 -0.0561763 5.56347 0.2687 -0.0998661 -11.6625 -3.03143 -4.53067 -11.6091 -2.79737 -5.19543 -0.0 0.0 -0.0 2.61588 17.758 6.08555 -17.2316 19.4197 55.234 0.296181 -8.34702 0.0216125 42.6914 -0.496602 -5.30657 3.84498 23.4523 33.6805 -0.0 0.0 -0.0 7.22622 -13.9304 -13.5677 81.711 -73.4849 -17.3144 0.501683 13.9566 -0.0614063 82.847 4.17064 8.76204 -5.30093 -21.5372 23.1288 0.0 0.0 0.0 57.0531 1.14709 -10.8882 -50.0248 -1.22433 7.33964 18.9002 -8.24505 -2.6905 -3.34625 0.0 0.0 -0.0 0.0 -0.0 23.2551 25.8181 -15.5849 -16.7548 -0.320159 -2.54211 17.7276 -29.0614 2.63187 37.5279 -0.0 -0.0 0.0 0.0 0.0 
1042.34458739 733.485 -1732.43213404 -26.5564562515 61.4247538373 28.1093604822 5.56379 0.266676 -0.10515 5.56376 0.272827 -0.0879676 5.56337 0.2811 -0.0561763 5.56347 0.2687 -0.0998661 -11.6625 -3.03143 -4.53067 -11.6091 -2.79737 -5.19543 -0.0 0.0 -0.0 2.61588 17.758 6.08555 -17.2316 19.4197 55.234 0.296181 -8.34702 0.0216125 42.6914 -0.496602 -5.30657 3.84498 23.4523 33.6805 -0.0 0.0 -0.0 7.22622 -13.9304 -13.5677 81.711 -73.4849 -17.3144 0.501683 13.9566 -0.0614063 82.847 4.17064 8.76204 -5.30093 -21.5372 23.1288 0.0 0.0 0.0 57.0531 1.14709 -10.8882 -50.0248 -1.22433 7.33964 18.9002 -8.24505 -2.6905 -3.34625 0.0 0.0 -0.0 0.0 -0.0 23.2551 25.8181 -15.5849 -16.7548 -0.320159 -2.54211 17.7276 -29.0614 2.63187 37.5279 -0.0 -0.0 0.0 0.0 0.0 
1039.24728804 733.485 -1728.41181644 -27.1405784887 62.045175855 28.772546709 5.56379 0.266676 -0.10515 5.56376 0.272827 -0.0879676 5.56337 0.2811 -0.0561763 5.56347 0.2687 -0.0998661 -11.6625 -3.03143 -4.53067 -11.6091 -2.79737 -5.19543 -0.0 0.0 -0.0 2.61588 17.758 6.08555 -17.2316 19.4197 55.234 0.296181 -8.34702 0.0216125 42.6914 -0.496602 -5.30657 3.84498 23.4523 33.6805 -0.0 0.0 -0.0 7.22622 -13.9304 -13.5677 81.711 -73.4849 -17.3144 0.501683 13.9566 -0.0614063 82.847 4.17064 8.76204 -5.30093 -21.5372 23.1288 0.0 0.0 0.0 57.0531 1.14709 -10.8882 -50.0248 -1.22433 7.33964 18.9002 -8.24505 -2.6905 -3.34625 0.0 0.0 -0.0 0.0 -0.0 23.2551 25.8181 -15.5849 -16.7548 -0.320159 -2.54211 17.7276 -29.0614 2.63187 37.5279 -0.0 -0.0 0.0 0.0 0.0 
1034.93689006 733.485 -1722.64370967 -28.0174229383 62.9197298773 29.7612089532 5.56379 0.266676 -0.10515 5.56376 0.272827 -0.0879676 5.56337 0.2811 -0.0561763 5.56347 0.2687 -0.0998661 -11.6625 -3.03143 -4.53067 -11.6091 -2.79737 -5.19543 -0.0 0.0 -0.0 2.61588 17.758 6.08555 -17.2316 19.4197 55.234 0.296181 -8.34702 0.0216125 42.6914 -0.496602 -5.30657 3.84498 23.4523 33.6805 -0.0 0.0 -0.0 7.22622 -13.9304 -13.5677 81.711 -73.4849 -17.3144 0.501683 13.9566 -0.0614063 82.847 4.17064 8.76204 -5.30093 -21.5372 23.1288 0.0 0.0 0.0 57.0531 1.14709 -10.8882 -50.0248 -1.22433 7.33964 18.9002 -8.24505 -2.6905 -3.34625 0.0 0.0 -0.0 0.0 -0.0 23.2551 25.8181 -15.5849 -16.7548 -0.320159 -2.54211 17.7276 -29.0614 2.63187 37.5279 -0.0 -0.0 0.0 0.0 0.0 
1032.26650789 733.485 -1718.96355271 -28.602177497 63.4682305405 30.4163589578 5.56379 0.266676 -0.10515 5.56376 0.272827 -0.0879676 5.56337 0.2811 -0.0561763 5.56347 0.2687 -0.0998661 -11.6625 -3.03143 -4.53067 -11.6091 -2.79737 -5.19543 -0.0 0.0 -0.0 2.61588 17.758 6.08555 -17.2316 19.4197 55.234 0.296181 -8.34702 0.0216125 42.6914 -0.496602 -5.30657 3.84498 23.4523 33.6805 -0.0 0.0 -0.0 7.22622 -13.9304 -13.5677 81.711 -73.4849 -17.3144 0.501683 13.9566 -0.0614063 82.847 4.17064 8.76204 -5.30093 -21.5372 23.1288 0.0 0.0 0.0 57.0531 1.14709 -10.8882 -50.0248 -1.22433 7.33964 18.9002 -8.24505 -2.6905 -3.34625 0.0 0.0 -0.0 0.0 -0.0 23.2551 25.8181 -15.5849 -16.7548 -0.320159 -2.54211 17.7276 -29.0614 2.63187 37.5279 -0.0 -0.0 0.0 0.0 0.0 
